<svg xmlns="http://www.w3.org/2000/svg" width="320" height="240" viewBox="0 0 320 240">
  <rect width="320" height="240" fill="#fff8e1" rx="12"/>
  <path d="M100 128 C95 92 110 58 147 52 C168 48 188 56 203 72 C223 90 225 120 212 143 C200 160 176 164 150 162 C120 160 105 150 100 128 Z" fill="#efcb96"/>
  <path d="M132 76 C121 92 116 113 120 134" stroke="#d4a464" stroke-width="3" fill="none" stroke-linecap="round" opacity="0.6"/>
  <path d="M157 63 C147 80 144 107 150 135" stroke="#d4a464" stroke-width="3" fill="none" stroke-linecap="round" opacity="0.6"/>
  <path d="M180 71 C173 90 172 117 177 140" stroke="#d4a464" stroke-width="3" fill="none" stroke-linecap="round" opacity="0.6"/>
  <path d="M147 66 C136 82 132 103 137 124" stroke="rgba(255,255,255,0.45)" stroke-width="8" fill="none" stroke-linecap="round"/>
  <rect x="40" y="175" width="240" height="36" rx="8" fill="#6d4c41"/>
  <text x="160" y="200" text-anchor="middle" font-family="Arial,sans-serif" font-size="18" font-weight="bold" fill="white">Chicken Breast</text>
</svg>
